# xmcd
#
# Track frame offsets:
# 150
# 16479
# 29259
# 43063
# 58491
# 71363
# 87148
# 100915
# 113858
# 126460
# 138941
# 152425
# 165379
# 177315
# 188267
# 201495
# 214487
# 225940
# 237812
# 251051
# 264890
# 276593
# 290240
# 302988
# 316412
#
# Disc length: 4401 seconds
#
# Revision: 0
# Processed by: cddbd v1.4PL0 Copyright (c) Steve Scherf et al.
# Submitted via: Axialis_AX_CDPlayer 2.6
#
DISCID=6f112f19
DTITLE=Big Bill Broonzy - Southern Blues
DYEAR=1900
DGENRE=
TTITLE0=The Southern Blues
TTITLE1=Pig Meat Strut
TTITLE2=Beedle Um Bum
TTITLE3=Friendless Blues
TTITLE4=Barrelhouse When It Rains
TTITLE5=Down in the Basement Blues
TTITLE6=Mistreatin' Mama Blues
TTITLE7=Going Back to Arkansas
TTITLE8=I Can't Be Satisfied
TTITLE9=Good Liquor Gonna Carry Me Down
TTITLE10=Flatfoot Susie With Her Yas Yas
TTITLE11=How You Want it Done
TTITLE12=Truckin' Little Women
TTITLE13=Grandma's Farm
TTITLE14=Jivin' Mr Fuller's Blues
TTITLE15=Bull Cow Blues
TTITLE16=Baby I Done Got Wise
TTITLE17=Unemployment Stomp
TTITLE18=Saturday Night Rub
TTITLE19=Keep Your Mind On It
TTITLE20=Oh Yes
TTITLE21=Mr Conductor Man
TTITLE22=Rockin' Chair Baby
TTITLE23=C and A Blues
TTITLE24=Key to the Highway
EXTD=
EXTT0=
EXTT1=
EXTT2=
EXTT3=
EXTT4=
EXTT5=
EXTT6=
EXTT7=
EXTT8=
EXTT9=
EXTT10=
EXTT11=
EXTT12=
EXTT13=
EXTT14=
EXTT15=
EXTT16=
EXTT17=
EXTT18=
EXTT19=
EXTT20=
EXTT21=
EXTT22=
EXTT23=
EXTT24=
PLAYORDER=
